inDegrees=yes
name=ik_S53_A08_T01
DataType=double
version=3
OpenSimVersion=4.3-2021-08-27-4bc7ad9
endheader
time	pelvis_tilt	pelvis_list	pelvis_rotation	pelvis_tx	pelvis_ty	pelvis_tz	hip_flexion_r	hip_adduction_r	hip_rotation_r	knee_angle_r	knee_angle_r_beta	ankle_angle_r	subtalar_angle_r	mtp_angle_r	hip_flexion_l	hip_adduction_l	hip_rotation_l	knee_angle_l	knee_angle_l_beta	ankle_angle_l	subtalar_angle_l	mtp_angle_l	lumbar_extension	lumbar_bending	lumbar_rotation	arm_flex_r	arm_add_r	arm_rot_r	elbow_flex_r	pro_sup_r	wrist_flex_r	wrist_dev_r	arm_flex_l	arm_add_l	arm_rot_l	elbow_flex_l	pro_sup_l	wrist_flex_l	wrist_dev_l
0	0	0	0	0	0.9399999999999999	0	0	0	0	0	0	0	0	0	0	0	0	0	0	0	0	0	0	0	0	0	0	0	0	89.99999999963507	0	0	0	0	0	0	89.99999999869995	0	0
0.01666666666666667	-4.677473111648237	-3.351819308552357	29.78296234734484	0	0.9399999999999999	0	3.269689983106435	-1.533872362037196	-1.100235873549014	4.947090058454592	0.08634300991271136	0	0	0	3.269689983106435	-1.533872362037196	-1.100235873549014	4.947090058454592	0.08634300991271136	0	0	0	-1.950928098692873	-0.6887864437893544	6.056036338053317	26.06998833444339	-7.758335524031248	-5.575116963071959	59.32194348382404	157.7257732121331	0	0	22.58068368244938	-13.75619185983077	-2.191500471316616	49.57040104142634	128.3739097191439	0	0
0.03333333333333333	-4.627728720027718	-3.316916995764791	29.89010339644688	0	0.9399999999999999	0	4.903189302167161	-2.289539238985425	-1.66960677295366	6.708719864108689	0.1170892502226432	0	0	0	4.903189302167161	-2.289539238985425	-1.66960677295366	6.708719864108689	0.1170892502226432	0	0	0	-1.996008217266095	-0.6780446531322393	5.983354766754507	26.05553170288264	-7.797131421729603	-5.591755370325408	59.2965160719412	157.5662222339653	0	0	22.56325633469877	-13.7408954595068	-2.165073546767251	49.58611885037379	128.3929607572347	0	0
0.05	-4.630641991174447	-3.338699949793855	29.89564121100628	0	0.9399999999999999	0	4.913914371888813	-2.294887400770497	-1.673283517608169	6.722442211904126	0.1173287503727773	0	0	0	4.913914371888813	-2.294887400770497	-1.673283517608169	6.722442211904126	0.1173287503727773	0	0	0	-2.008414146575611	-0.697346737883019	6.013079238065851	26.0689644229634	-7.756001425504647	-5.667757928263905	59.27826766275165	157.2872852647467	0	0	22.64929509837914	-13.80866596789969	-2.013805469301291	49.5745379718001	128.3816900075369	0	0
0.06666666666666667	-4.670962325419742	-3.371339053373247	29.91091744937108	0	0.9399999999999999	0	4.940632727439158	-2.308249341933683	-1.682452570714439	6.756566554743219	0.1179243325103989	0	0	0	4.940632727439158	-2.308249341933683	-1.682452570714439	6.756566554743219	0.1179243325103989	0	0	0	-2.058533932462259	-0.7086038323643968	6.063606275659054	26.17998450725152	-7.748413826814087	-5.771197506762347	59.19146456079345	156.8004614000741	0	0	22.8532867958309	-13.90113279334663	-1.783406473871403	49.54110424658759	128.3879056101541	0	0
0.08333333333333333	-4.668654488291666	-3.356323351250178	29.90413755698711	0	0.9399999999999999	0	4.945828847400293	-2.310818766482799	-1.684229841313772	6.763218048527468	0.1180404229771099	0	0	0	4.945828847400293	-2.310818766482799	-1.684229841313772	6.763218048527468	0.1180404229771099	0	0	0	-2.0487822445941	-0.6973446093338701	6.073516818596933	26.16346468236374	-7.732745762701847	-5.763498201628172	59.19041936097096	156.8276531302843	0	0	22.86529322528019	-13.95086728108183	-1.693899618958421	49.56835872370955	128.4704299254782	0	0
0.09999999999999999	-4.634052971362291	-3.352155741086755	29.91505000596681	0	0.9399999999999999	0	4.956754420197205	-2.316252836450232	-1.687973710309634	6.777175800857162	0.118284031711441	0	0	0	4.956754420197205	-2.316252836450232	-1.687973710309634	6.777175800857162	0.118284031711441	0	0	0	-2.015022766764155	-0.7136633785563592	6.114532674230826	26.09330172621714	-7.701246112854394	-5.944500457846728	59.10832961483867	156.4628560489823	0	0	22.85000164373219	-14.02232862961723	-1.640415381300895	49.55368211400241	128.4598589639648	0	0
0.1166666666666667	-4.649007010825501	-3.372728680626944	29.91208979936054	0	0.9399999999999999	0	4.966662199524309	-2.321183118714295	-1.691369638402252	6.78982475798154	0.118504797660205	0	0	0	4.966662199524309	-2.321183118714295	-1.691369638402252	6.78982475798154	0.118504797660205	0	0	0	-2.036840776391208	-0.726402623247017	6.151466306447269	26.14547992590168	-7.712212518860413	-6.126405657649689	59.0429316240332	156.1254558754136	0	0	22.92029823161492	-14.08643128559923	-1.598352577450486	49.59885261852104	128.4822573043725	0	0
0.1333333333333333	-4.654640636454512	-3.375258268043078	29.89844658723096	0	0.9399999999999999	0	4.978030984669576	-2.326849269796187	-1.695268537622617	6.804324363925213	0.1187578635241638	0	0	0	4.978030984669576	-2.326849269796187	-1.695268537622617	6.804324363925213	0.1187578635241638	0	0	0	-2.042175638573052	-0.7274286665899686	6.177026841120515	26.17187587855272	-7.709224465147234	-6.281981015860549	58.95806356236574	155.9517772410501	0	0	22.94009584604149	-14.07585609627449	-1.570433384158951	49.61911323735201	128.4653221835805	0	0
0.15	-4.627921065843188	-3.330386950647752	29.92068931690606	0	0.9399999999999999	0	5.382752194095423	-2.516895973456291	-1.836820831758883	7.241433550119906	0.1263868580139742	0	0	0	5.382752194095423	-2.516895973456291	-1.836820831758883	7.241433550119906	0.1263868580139742	0	0	0	-2.02123604373663	-0.7020116270698847	6.160600782123133	26.10778685021231	-7.770243665107062	-6.256561556557518	58.94982506693653	155.9166267899717	0	0	22.89949303310847	-14.10151804838979	-1.520118937550726	49.59571560141836	128.3455286996606	0	0
0.1666666666666667	-4.621613035774976	-3.31607830122821	29.88897074278632	0	0.9399999999999999	0	5.388131427546782	-2.519542872861307	-1.838663244146136	7.248213797644889	0.1265051956573853	0	0	0	5.388131427546782	-2.519542872861307	-1.838663244146136	7.248213797644889	0.1265051956573853	0	0	0	-2.00883653440795	-0.692788971670658	6.161214084039622	26.09361053611501	-7.75924041490224	-6.352280124167282	58.91451778661842	155.8836802574751	0	0	22.87065760710988	-14.10119434220045	-1.52431592620879	49.57624885240875	128.2803678572368	0	0
0.1833333333333333	-4.589708706871218	-3.290424204667509	29.98824867045343	0	0.9399999999999999	0	7.226362367503945	-3.258188163895046	-2.46002290518296	9.022790598192707	0.1574774036564515	0	0	0	7.226362367503945	-3.258188163895046	-2.46002290518296	9.022790598192707	0.1574774036564515	0	0	0	-2.066501551689775	-0.7110396643208968	6.071552207344063	26.12022086000209	-7.744781932394083	-6.449233621669004	58.85390644936074	155.8917817273164	0	0	22.91348530406723	-14.12107659731091	-1.419876548737737	49.5493248977375	128.0892795253656	0	0
0.2	-4.590544721965537	-3.280809025446995	29.97473992799593	0	0.9399999999999999	0	7.233112339943209	-3.261392121229356	-2.462324684879618	9.031012139011942	0.1576208966133342	0	0	0	7.233112339943209	-3.261392121229356	-2.462324684879618	9.031012139011942	0.1576208966133342	0	0	0	-2.062735508386623	-0.7023530174890654	6.071766887485714	26.1275066089297	-7.74151014863406	-6.475023525185981	58.81933982263884	156.006760023622	0	-6.899866100360083e-36	22.90627991994089	-14.07190835578143	-1.415961693397735	49.4854722991652	127.9389432362739	0	-6.899866100360083e-36
